<?xml version="1.0" encoding="UTF-8"?>
<svg width="128" height="128" viewBox="0 0 128 128" xmlns="http://www.w3.org/2000/svg">
  <defs>
    <linearGradient id="cyanPurple" x1="0%" y1="0%" x2="100%" y2="100%">
      <stop offset="0%" stop-color="#00f0ff" />
      <stop offset="60%" stop-color="#3b82f6" />
      <stop offset="100%" stop-color="#bc13fe" />
    </linearGradient>
    <linearGradient id="darkChassis" x1="0%" y1="0%" x2="0%" y2="100%">
      <stop offset="0%" stop-color="#0b162c" />
      <stop offset="100%" stop-color="#040814" />
    </linearGradient>
    <filter id="glow" x="-30%" y="-30%" width="160%" height="160%">
      <feGaussianBlur stdDeviation="3.5" result="blur" />
      <feMerge>
        <feMergeNode in="blur" />
        <feMergeNode in="SourceGraphic" />
      </feMerge>
    </filter>
    <filter id="glowLight" x="-20%" y="-20%" width="140%" height="140%">
      <feGaussianBlur stdDeviation="1.8" result="blur" />
      <feMerge>
        <feMergeNode in="blur" />
        <feMergeNode in="SourceGraphic" />
      </feMerge>
    </filter>
  </defs>

  <!-- Outer Octagon Chassis -->
  <polygon points="42,12 86,12 116,42 116,86 86,116 42,116 12,86 12,42" 
           fill="url(#darkChassis)" stroke="#00f0ff" stroke-width="3" stroke-linejoin="round" filter="url(#glowLight)"/>

  <!-- Top & Bottom Accent Brackets -->
  <line x1="48" y1="12" x2="80" y2="12" stroke="#00f0ff" stroke-width="5" filter="url(#glowLight)"/>
  <line x1="48" y1="116" x2="80" y2="116" stroke="#00f0ff" stroke-width="5" filter="url(#glowLight)"/>

  <!-- Inner Octagon (Magenta) -->
  <polygon points="44,18 84,18 110,44 110,84 84,110 44,110 18,84 18,44" 
           fill="#060c1a" stroke="#bc13fe" stroke-width="3" stroke-linejoin="round"/>

  <!-- Left and Right Notches -->
  <rect x="9" y="60" width="6" height="8" rx="1.5" fill="#00f0ff" filter="url(#glowLight)"/>
  <rect x="113" y="60" width="6" height="8" rx="1.5" fill="#00f0ff" filter="url(#glowLight)"/>

  <!-- Inner Graphic centered -->
  <g transform="translate(0, 8)">
    
      <!-- Combat Boot Side Profile -->
      <g transform="translate(10, 2)">
        <!-- Boot Leg Shaft -->
        <path d="M 40 30 L 58 30 L 58 52 L 78 57 C 82 58, 83 63, 80 67 L 76 71 L 34 71 C 32 67, 33 60, 36 53 Z" 
              fill="#08142c" stroke="url(#cyanPurple)" stroke-width="3.5" stroke-linejoin="round" filter="url(#glow)"/>
        <!-- Sole & Rugged Treads -->
        <rect x="32" y="71" width="48" height="6" rx="2" fill="url(#cyanPurple)" stroke="#00f0ff" stroke-width="1.5" filter="url(#glowLight)"/>
        <!-- Tread notches -->
        <line x1="38" y1="74" x2="38" y2="77" stroke="#060c1c" stroke-width="2"/>
        <line x1="46" y1="74" x2="46" y2="77" stroke="#060c1c" stroke-width="2"/>
        <line x1="54" y1="74" x2="54" y2="77" stroke="#060c1c" stroke-width="2"/>
        <line x1="62" y1="74" x2="62" y2="77" stroke="#060c1c" stroke-width="2"/>
        <line x1="70" y1="74" x2="70" y2="77" stroke="#060c1c" stroke-width="2"/>
        <!-- Boot Laces / Rings -->
        <line x1="48" y1="36" x2="54" y2="36" stroke="#00f0ff" stroke-width="2.5" stroke-linecap="round"/>
        <line x1="48" y1="42" x2="54" y2="42" stroke="#00f0ff" stroke-width="2.5" stroke-linecap="round"/>
        <line x1="48" y1="48" x2="55" y2="48" stroke="#00f0ff" stroke-width="2.5" stroke-linecap="round"/>
      </g>
      <!-- "KICK" Cyber Text -->
      <text x="82" y="47" fill="#00f0ff" font-family="'Orbitron', 'Chakra Petch', sans-serif" font-weight="900" font-size="11" letter-spacing="1" text-anchor="middle" filter="url(#glowLight)">KICK</text>
    
  </g>
</svg>